<?xml version="1.0" standalone="no"?><svg xmlns="http://www.w3.org/2000/svg" viewBox="0 0 720 320"><path fill="#0099ff" fill-opacity="1" d="M0,0L26.7,48C53.3,96,107,192,160,197.3C213.3,203,267,117,320,74.7C373.3,32,427,32,480,42.7C533.3,53,587,75,640,112C693.3,149,747,203,800,192C853.3,181,907,107,960,117.3C1013.3,128,1067,224,1120,218.7C1173.3,213,1227,107,1280,85.3C1333.3,64,1387,128,1413,160L1440,192L1440,0L1413.3,0C1386.7,0,1333,0,1280,0C1226.7,0,1173,0,1120,0C1066.7,0,1013,0,960,0C906.7,0,853,0,800,0C746.7,0,693,0,640,0C586.7,0,533,0,480,0C426.7,0,373,0,320,0C266.7,0,213,0,160,0C106.7,0,53,0,27,0L0,0Z"></path></svg>