<?xml version="1.0" standalone="no"?><svg xmlns="http://www.w3.org/2000/svg" viewBox="0 0 1440 320"><path fill="#0099ff" fill-opacity="1" d="M0,320L26.7,298.7C53.3,277,107,235,160,213.3C213.3,192,267,192,320,213.3C373.3,235,427,277,480,293.3C533.3,309,587,299,640,245.3C693.3,192,747,96,800,74.7C853.3,53,907,107,960,133.3C1013.3,160,1067,160,1120,144C1173.3,128,1227,96,1280,101.3C1333.3,107,1387,149,1413,170.7L1440,192L1440,320L1413.3,320C1386.7,320,1333,320,1280,320C1226.7,320,1173,320,1120,320C1066.7,320,1013,320,960,320C906.7,320,853,320,800,320C746.7,320,693,320,640,320C586.7,320,533,320,480,320C426.7,320,373,320,320,320C266.7,320,213,320,160,320C106.7,320,53,320,27,320L0,320Z"></path></svg>